<mxfile host="app.diagrams.net" agent="Mozilla/5.0 (Windows NT 10.0; Win64; x64) AppleWebKit/537.36 (KHTML, like Gecko) Chrome/127.0.0.0 Safari/537.36" version="24.7.7">
  <diagram name="페이지-1" id="D6I1qVsf_nCCY4erPOSt">
    <mxGraphModel dx="1050" dy="565" grid="1" gridSize="10" guides="1" tooltips="1" connect="1" arrows="1" fold="1" page="1" pageScale="1" pageWidth="827" pageHeight="1169" math="0" shadow="0">
      <root>
        <mxCell id="0" />
        <mxCell id="1" parent="0" />
        <mxCell id="PiYFNR5EWOuwVsq-8I_S-13" style="edgeStyle=orthogonalEdgeStyle;rounded=0;orthogonalLoop=1;jettySize=auto;html=1;entryX=0;entryY=0.5;entryDx=0;entryDy=0;" edge="1" parent="1" source="PiYFNR5EWOuwVsq-8I_S-1" target="PiYFNR5EWOuwVsq-8I_S-10">
          <mxGeometry relative="1" as="geometry" />
        </mxCell>
        <mxCell id="PiYFNR5EWOuwVsq-8I_S-1" value="고객" style="shape=umlActor;verticalLabelPosition=bottom;verticalAlign=top;html=1;" vertex="1" parent="1">
          <mxGeometry x="30" y="170" width="30" height="60" as="geometry" />
        </mxCell>
        <mxCell id="PiYFNR5EWOuwVsq-8I_S-17" style="edgeStyle=orthogonalEdgeStyle;rounded=0;orthogonalLoop=1;jettySize=auto;html=1;entryX=1;entryY=0.5;entryDx=0;entryDy=0;" edge="1" parent="1" target="PiYFNR5EWOuwVsq-8I_S-12">
          <mxGeometry relative="1" as="geometry">
            <mxPoint x="775" y="360" as="sourcePoint" />
            <Array as="points">
              <mxPoint x="775" y="440" />
              <mxPoint x="550" y="440" />
              <mxPoint x="550" y="445" />
            </Array>
          </mxGeometry>
        </mxCell>
        <mxCell id="PiYFNR5EWOuwVsq-8I_S-2" value="호텔시스템" style="shape=umlActor;verticalLabelPosition=bottom;verticalAlign=top;html=1;" vertex="1" parent="1">
          <mxGeometry x="760" y="260" width="30" height="60" as="geometry" />
        </mxCell>
        <mxCell id="PiYFNR5EWOuwVsq-8I_S-9" value="호텔 ROOM 예약 시스템" style="shape=umlFrame;whiteSpace=wrap;html=1;pointerEvents=0;width=160;height=30;" vertex="1" parent="1">
          <mxGeometry x="100" y="20" width="630" height="500" as="geometry" />
        </mxCell>
        <mxCell id="PiYFNR5EWOuwVsq-8I_S-10" value="룸 예약" style="ellipse;whiteSpace=wrap;html=1;" vertex="1" parent="1">
          <mxGeometry x="170" y="110" width="140" height="70" as="geometry" />
        </mxCell>
        <mxCell id="PiYFNR5EWOuwVsq-8I_S-32" style="edgeStyle=orthogonalEdgeStyle;rounded=0;orthogonalLoop=1;jettySize=auto;html=1;" edge="1" parent="1" source="PiYFNR5EWOuwVsq-8I_S-11" target="PiYFNR5EWOuwVsq-8I_S-10">
          <mxGeometry relative="1" as="geometry" />
        </mxCell>
        <mxCell id="PiYFNR5EWOuwVsq-8I_S-11" value="옵션 선택" style="ellipse;whiteSpace=wrap;html=1;" vertex="1" parent="1">
          <mxGeometry x="350" y="50" width="140" height="70" as="geometry" />
        </mxCell>
        <mxCell id="PiYFNR5EWOuwVsq-8I_S-12" value="예약 번호 발급" style="ellipse;whiteSpace=wrap;html=1;" vertex="1" parent="1">
          <mxGeometry x="200" y="410" width="140" height="70" as="geometry" />
        </mxCell>
        <mxCell id="PiYFNR5EWOuwVsq-8I_S-35" style="edgeStyle=orthogonalEdgeStyle;rounded=0;orthogonalLoop=1;jettySize=auto;html=1;" edge="1" parent="1" source="PiYFNR5EWOuwVsq-8I_S-22">
          <mxGeometry relative="1" as="geometry">
            <mxPoint x="410" y="220" as="targetPoint" />
          </mxGeometry>
        </mxCell>
        <mxCell id="PiYFNR5EWOuwVsq-8I_S-22" value="Room 유형" style="ellipse;whiteSpace=wrap;html=1;" vertex="1" parent="1">
          <mxGeometry x="540" y="260" width="140" height="70" as="geometry" />
        </mxCell>
        <mxCell id="PiYFNR5EWOuwVsq-8I_S-23" value="Room 가격" style="ellipse;whiteSpace=wrap;html=1;" vertex="1" parent="1">
          <mxGeometry x="540" y="100" width="140" height="70" as="geometry" />
        </mxCell>
        <mxCell id="PiYFNR5EWOuwVsq-8I_S-34" style="edgeStyle=orthogonalEdgeStyle;rounded=0;orthogonalLoop=1;jettySize=auto;html=1;" edge="1" parent="1" source="PiYFNR5EWOuwVsq-8I_S-24">
          <mxGeometry relative="1" as="geometry">
            <mxPoint x="410" y="160" as="targetPoint" />
          </mxGeometry>
        </mxCell>
        <mxCell id="PiYFNR5EWOuwVsq-8I_S-24" value="Room 크기" style="ellipse;whiteSpace=wrap;html=1;" vertex="1" parent="1">
          <mxGeometry x="540" y="180" width="140" height="70" as="geometry" />
        </mxCell>
        <mxCell id="PiYFNR5EWOuwVsq-8I_S-31" style="edgeStyle=orthogonalEdgeStyle;rounded=0;orthogonalLoop=1;jettySize=auto;html=1;entryX=0.394;entryY=1.014;entryDx=0;entryDy=0;entryPerimeter=0;" edge="1" parent="1" source="PiYFNR5EWOuwVsq-8I_S-12" target="PiYFNR5EWOuwVsq-8I_S-10">
          <mxGeometry relative="1" as="geometry" />
        </mxCell>
        <mxCell id="PiYFNR5EWOuwVsq-8I_S-33" style="edgeStyle=orthogonalEdgeStyle;rounded=0;orthogonalLoop=1;jettySize=auto;html=1;entryX=0.423;entryY=1.037;entryDx=0;entryDy=0;entryPerimeter=0;" edge="1" parent="1" source="PiYFNR5EWOuwVsq-8I_S-23" target="PiYFNR5EWOuwVsq-8I_S-11">
          <mxGeometry relative="1" as="geometry">
            <Array as="points">
              <mxPoint x="515" y="135" />
              <mxPoint x="515" y="160" />
              <mxPoint x="409" y="160" />
            </Array>
          </mxGeometry>
        </mxCell>
      </root>
    </mxGraphModel>
  </diagram>
</mxfile>
